<?xml version="1.0" standalone="no"?>
<!DOCTYPE svg PUBLIC "-//W3C//DTD SVG 20010904//EN"
 "http://www.w3.org/TR/2001/REC-SVG-20010904/DTD/svg10.dtd">
<svg version="1.0" xmlns="http://www.w3.org/2000/svg"
 width="512.000000pt" height="512.000000pt" viewBox="0 0 512.000000 512.000000"
 preserveAspectRatio="xMidYMid meet">
<g transform="translate(0.000000,512.000000) scale(0.100000,-0.100000)"
fill="#000000" stroke="none">
<path d="M2260 4624 c-944 -146 -1654 -876 -1770 -1817 -16 -131 -13 -403 5
-536 106 -758 621 -1399 1339 -1666 213 -79 272 -80 339 -6 45 50 56 108 32
169 -25 61 -59 84 -176 121 -143 45 -312 127 -449 218 -142 95 -352 300 -453
443 -131 186 -238 434 -289 670 -19 91 -22 135 -23 330 0 196 3 240 23 338
144 710 683 1251 1387 1392 158 32 413 38 577 15 395 -56 744 -235 1023 -527
128 -133 218 -260 300 -423 145 -289 203 -577 183 -906 -36 -603 -413 -1171
-957 -1443 -143 -72 -127 -89 -134 146 -4 125 -13 242 -24 305 l-19 102 61 16
c33 9 105 38 160 65 277 136 474 393 537 700 17 81 19 124 15 285 -3 169 -7
200 -30 280 -15 50 -50 135 -77 190 l-50 101 0 129 c-1 146 -16 248 -55 364
-44 132 -101 165 -245 142 -119 -20 -256 -68 -380 -133 -115 -60 -115 -60
-165 -49 -259 56 -535 54 -793 -4 l-71 -16 -46 31 c-64 44 -197 104 -275 125
-36 9 -110 19 -166 22 -122 7 -162 -7 -199 -71 -50 -85 -93 -334 -82 -468 6
-65 4 -72 -33 -141 -52 -97 -94 -221 -115 -340 -24 -132 -17 -345 15 -462 93
-347 348 -623 681 -740 l75 -26 -9 -61 -10 -60 -46 7 c-111 16 -201 83 -313
236 -76 102 -155 172 -245 215 -62 30 -83 36 -120 31 -80 -9 -143 -76 -143
-154 0 -80 38 -136 113 -168 27 -11 57 -41 105 -103 196 -254 353 -355 598
-387 68 -9 209 11 263 37 55 26 101 95 101 150 0 72 31 192 71 274 47 97 51
153 17 204 -38 55 -68 71 -154 81 -118 14 -190 35 -279 79 -250 123 -405 374
-405 654 0 164 38 295 120 422 55 84 61 107 48 216 -7 60 -8 118 -2 163 9 67
10 70 34 67 42 -6 162 -69 215 -112 95 -80 114 -83 266 -45 280 71 525 73 766
5 119 -33 159 -27 241 36 49 37 208 118 253 128 23 5 28 2 33 -20 10 -37 8
-199 -3 -263 -11 -70 1 -113 49 -176 47 -63 72 -111 100 -200 20 -61 23 -89
22 -219 -2 -165 -19 -251 -71 -354 -115 -228 -318 -360 -588 -381 -111 -8
-136 -19 -177 -75 -31 -41 -30 -144 2 -183 45 -56 51 -69 66 -128 25 -98 36
-264 36 -539 0 -258 0 -259 25 -302 27 -46 90 -84 141 -84 41 0 207 53 328
105 681 292 1154 924 1246 1665 13 109 13 391 -1 500 -47 385 -207 764 -446
1060 -72 89 -264 277 -348 341 -263 201 -570 338 -899 400 -148 28 -532 36
-676 13z"/>
</g>
</svg>
