<?xml version="1.0" standalone="no"?>
<!DOCTYPE svg PUBLIC "-//W3C//DTD SVG 20010904//EN"
 "http://www.w3.org/TR/2001/REC-SVG-20010904/DTD/svg10.dtd">
<svg version="1.0" xmlns="http://www.w3.org/2000/svg"
 width="60" height="60" viewBox="0 0 512.000000 512.000000"
 preserveAspectRatio="xMidYMid meet">
<g transform="translate(0.000000,512.000000) scale(0.100000,-0.100000)"
fill="#e1d4c9" stroke="none">
<path d="M2315 5104 c-432 -75 -823 -361 -1019 -744 -67 -131 -118 -275 -142
-405 -28 -146 -26 -404 4 -541 48 -223 101 -339 287 -634 69 -110 125 -203
125 -208 0 -4 -176 -107 -390 -228 -215 -120 -399 -226 -408 -235 -10 -9 -43
-83 -74 -165 -31 -82 -201 -529 -377 -994 -207 -545 -321 -857 -321 -881 0
-22 7 -42 18 -52 45 -41 59 -34 695 324 l605 340 605 -340 c450 -254 613 -341
637 -341 24 0 187 87 637 340 l603 340 30 -15 c17 -9 290 -162 606 -340 471
-266 583 -325 614 -325 46 0 70 24 70 71 0 45 -751 2025 -774 2042 -9 7 -192
111 -406 231 -215 121 -390 224 -390 228 0 5 55 95 122 201 186 294 242 419
290 641 29 136 31 407 4 541 -42 214 -139 434 -260 596 -126 167 -323 332
-509 426 -96 48 -284 108 -396 127 -117 20 -374 20 -486 0z m465 -160 c508
-89 915 -486 1026 -1004 25 -118 25 -372 0 -490 -23 -108 -68 -235 -117 -330
-38 -75 -1048 -1682 -1081 -1720 -23 -26 -72 -26 -95 -1 -28 31 -1057 1668
-1091 1736 -41 83 -86 214 -108 315 -25 118 -25 372 0 490 79 366 297 668 621
858 241 142 557 196 845 146z m-1262 -2836 c-32 -150 -58 -287 -58 -304 0 -47
30 -78 74 -78 65 0 71 14 131 299 30 143 58 268 63 277 5 14 71 -84 267 -395
398 -632 398 -632 444 -659 l41 -23 0 -502 c0 -277 -3 -503 -6 -503 -4 0
-1051 586 -1062 595 -2 2 29 152 67 334 39 183 71 346 71 363 0 19 -9 41 -22
55 -34 36 -106 28 -123 -14 -4 -10 -42 -177 -84 -372 l-76 -354 -504 -284
c-277 -156 -505 -282 -506 -281 -2 3 653 1730 657 1733 3 2 682 385 684 385 0
0 -26 -123 -58 -272z m2387 69 c176 -99 321 -180 323 -182 4 -4 659 -1730 657
-1733 -2 -3 -997 557 -1007 566 -3 4 -80 354 -170 779 -148 697 -162 770 -143
761 11 -6 164 -92 340 -191z m-349 -626 c85 -403 154 -734 152 -736 -10 -8
-1057 -595 -1062 -595 -3 0 -6 226 -5 503 l0 502 46 30 c41 27 80 83 372 547
244 387 328 513 333 500 5 -9 78 -347 164 -751z"/>
<path d="M2359 4500 c-307 -76 -546 -324 -610 -634 -69 -335 72 -679 354 -863
145 -95 276 -133 457 -133 327 0 598 167 741 456 237 479 -28 1051 -544 1174
-109 26 -291 26 -398 0z m336 -151 c125 -22 248 -93 353 -204 165 -173 221
-419 148 -650 -56 -175 -181 -318 -348 -399 -107 -51 -176 -68 -288 -68 -112
0 -181 17 -290 69 -80 39 -108 59 -181 132 -70 70 -94 102 -127 171 -94 196
-94 394 0 590 33 69 57 101 127 171 174 172 361 230 606 188z"/>
<path d="M2426 4209 c-126 -30 -271 -145 -334 -265 -81 -156 -81 -342 0 -498
43 -82 146 -183 228 -223 84 -41 136 -52 240 -53 153 0 265 46 370 150 136
134 188 315 145 499 -44 185 -206 349 -385 390 -54 13 -210 12 -264 0z m302
-189 c75 -39 135 -103 170 -180 35 -75 37 -199 4 -280 -30 -75 -97 -149 -174
-191 -60 -33 -67 -34 -168 -34 -101 0 -108 1 -168 34 -75 41 -135 105 -170
181 -22 46 -26 69 -26 145 0 104 24 168 89 243 75 86 165 123 290 119 80 -3
97 -7 153 -37z"/>
</g>
</svg>
