<?xml version="1.0" standalone="no"?>
<!DOCTYPE svg PUBLIC "-//W3C//DTD SVG 20010904//EN"
 "http://www.w3.org/TR/2001/REC-SVG-20010904/DTD/svg10.dtd">
<svg version="1.0" xmlns="http://www.w3.org/2000/svg"
 width="512.000000pt" height="512.000000pt" viewBox="0 0 512.000000 512.000000"
 preserveAspectRatio="xMidYMid meet">
<g transform="translate(0.000000,512.000000) scale(0.100000,-0.100000)"
fill="#000000" stroke="none">
<path d="M2240 5105 c-444 -55 -852 -220 -1220 -493 -150 -112 -400 -362 -512
-512 -276 -372 -439 -779 -494 -1230 -17 -148 -17 -472 0 -620 55 -451 218
-858 494 -1230 112 -150 362 -400 512 -512 372 -276 779 -439 1230 -494 148
-17 472 -17 620 0 451 55 858 218 1230 494 150 112 400 362 512 512 276 372
439 779 494 1230 16 136 18 451 4 588 -14 129 -54 329 -91 455 -118 396 -354
795 -632 1065 -93 90 -121 100 -171 61 -20 -16 -26 -29 -26 -61 0 -37 7 -48
83 -128 380 -399 595 -847 663 -1380 19 -150 18 -438 -1 -587 -35 -267 -113
-522 -230 -758 -359 -725 -1045 -1214 -1848 -1320 -153 -20 -441 -20 -594 0
-267 35 -522 113 -758 230 -725 359 -1214 1045 -1320 1848 -20 153 -20 441 0
594 35 267 113 522 230 758 359 725 1045 1214 1848 1320 150 19 438 20 584 0
354 -46 687 -163 978 -343 69 -43 109 -62 132 -62 37 0 69 26 78 63 12 44 -11
75 -97 130 -322 206 -678 333 -1070 382 -149 18 -479 18 -628 0z"/>
<path d="M3725 4041 c-21 -9 -1416 -658 -1517 -706 -61 -29 -85 -65 -74 -110
9 -35 45 -65 78 -65 20 0 813 359 923 417 28 16 -78 -72 -739 -606 -396 -320
-724 -580 -731 -577 -6 2 -134 57 -283 123 -261 113 -271 119 -244 131 504
233 782 366 800 383 48 46 11 139 -56 139 -27 0 -879 -388 -940 -428 -72 -47
-66 -182 10 -223 13 -7 165 -74 338 -150 206 -90 317 -144 322 -156 4 -10 49
-270 99 -578 89 -539 94 -561 120 -588 30 -29 54 -33 93 -16 16 8 116 152 298
429 l273 418 35 -18 c19 -9 255 -120 523 -245 434 -202 493 -227 525 -221 20
3 48 14 62 24 58 42 53 -9 131 1330 l73 1242 -24 25 c-29 27 -66 38 -95 26z
m-134 -1449 c-32 -546 -61 -996 -64 -999 -6 -5 -703 315 -874 401 l-62 31 527
804 c395 603 528 799 530 780 1 -13 -24 -471 -57 -1017z m-1065 120 c-249
-280 -459 -518 -465 -531 -7 -12 -45 -160 -85 -329 -61 -253 -75 -301 -80
-272 -4 19 -31 178 -60 353 l-53 319 251 203 c138 112 406 330 596 484 190
154 346 280 347 280 2 1 -201 -228 -451 -507z m420 171 c-177 -273 -508 -778
-512 -782 -6 -7 -154 64 -151 72 2 8 739 837 744 837 1 0 -35 -57 -81 -127z
m-616 -935 c0 -4 -54 -89 -120 -190 -66 -101 -120 -179 -120 -175 0 4 23 102
50 218 28 116 50 212 50 214 0 7 139 -60 140 -67z"/>
</g>
</svg>
